<svg xmlns="http://www.w3.org/2000/svg" viewBox="0 0 134.73 55.41"><defs><style>.cls-1{fill:none;stroke:#fdf9df;stroke-width:2px;}.cls-2,.cls-3{fill:#fdf9df;}.cls-3{font-size:12px;font-family:Roboto-Regular, Roboto;}.cls-4{font-size:20px;fill:#de9e48;font-family:Roboto-Medium, Roboto;font-weight:500;}.cls-5{letter-spacing:0em;}.cls-6{letter-spacing:0em;}.cls-7{letter-spacing:0em;}.cls-8{letter-spacing:0em;}.cls-9{letter-spacing:0em;}.cls-10{letter-spacing:-0.01em;}</style></defs><g id="Layer_2" data-name="Layer 2"><g id="Layer_1-2" data-name="Layer 1"><rect class="cls-1" x="1" y="1" width="132.73" height="53.41" rx="5.58"/><path class="cls-2" d="M16.38,27.3c0-4.32.14-8.65-.05-13-.17-4.15,1.72-5.6,5.7-5.54,17.49.28,14.85-2.16,15,14.58.07,6-.1,12,0,18,.1,3.9-1.63,5.42-5.4,5.27-3.49-.14-7-.09-10.48,0s-4.89-1.49-4.86-4.81C16.42,37,16.38,32.12,16.38,27.3ZM34.91,16H18.84V39.36H34.91Z"/><text class="cls-3" transform="translate(53.62 21.61)">Download<tspan class="cls-4"><tspan class="cls-5" x="0" y="21">C</tspan><tspan class="cls-6" x="13.13" y="21">h</tspan><tspan class="cls-7" x="24.17" y="21">e</tspan><tspan class="cls-8" x="34.92" y="21">e</tspan><tspan class="cls-9" x="45.73" y="21">r</tspan><tspan class="cls-10" x="52.8" y="21">s</tspan><tspan x="62.97" y="21">!</tspan></tspan></text></g></g></svg>